<svg width="256" height="128" viewBox="0 0 256 128" fill="none" xmlns="http://www.w3.org/2000/svg">
<path d="M245.667 119L221.667 99.7473L224.333 108H160.333C152.971 108 147 101.845 147 94.25V22.75C147 15.1545 152.971 9 160.333 9H232.333C239.699 9 245.667 15.1545 245.667 22.75V119Z" fill="#8C9EFF"/>
<path d="M11 23C11 15.268 17.268 9 25 9H191C198.732 9 205 15.268 205 23V94C205 101.732 198.732 108 191 108H25C17.268 108 11 101.732 11 94V23Z" fill="#8C9EFF"/>
<path d="M225.573 37.9733C225.573 37.9733 218.64 32.6133 210.427 32L209.707 33.4667C217.12 35.2533 220.507 37.84 224.053 41.0133C217.947 37.8933 211.893 34.6667 201.333 34.6667C190.773 34.6667 184.72 37.8933 178.613 41.0133C182.16 37.84 186.213 34.96 192.96 33.4667L192.24 32C183.627 32.8267 177.093 37.9733 177.093 37.9733C177.093 37.9733 169.333 49.1467 168 70.9867C175.84 79.9467 187.707 80 187.707 80L190.16 76.72C185.973 75.28 181.2 72.6933 177.093 68C182 71.68 189.387 74.6667 201.333 74.6667C213.28 74.6667 220.667 71.68 225.573 68C221.467 72.6933 216.693 75.28 212.507 76.72L214.96 80C214.96 80 226.827 79.9467 234.667 70.9867C233.333 49.1467 225.573 37.9733 225.573 37.9733ZM192 66.6667C189.067 66.6667 186.667 63.68 186.667 60C186.667 56.32 189.067 53.3333 192 53.3333C194.933 53.3333 197.333 56.32 197.333 60C197.333 63.68 194.933 66.6667 192 66.6667ZM210.667 66.6667C207.733 66.6667 205.333 63.68 205.333 60C205.333 56.32 207.733 53.3333 210.667 53.3333C213.6 53.3333 216 56.32 216 60C216 63.68 213.6 66.6667 210.667 66.6667Z" fill="white"/>
<path d="M39.1811 59.224C39.1811 59.918 39.052 60.5195 38.7939 61.0284C38.5358 61.5258 38.2032 61.9364 37.7962 62.2603C37.3892 62.5957 36.9226 62.8444 36.3964 63.0063C35.8802 63.1567 35.354 63.2319 34.8179 63.2319C34.1429 63.2319 33.5174 63.1278 32.9416 62.9196C32.3758 62.6998 31.8744 62.3759 31.4376 61.948C31.0008 61.5315 30.6434 61.0226 30.3654 60.4211C30.0875 59.8081 29.9038 59.1083 29.8145 58.3218H27C27.0298 59.409 27.2333 60.398 27.6105 61.2886C27.9977 62.1677 28.5189 62.9369 29.1741 63.5962C29.9088 64.3596 30.7725 64.9437 31.7652 65.3486C32.7679 65.7534 33.7855 65.9558 34.8179 65.9558C35.6816 65.9558 36.5453 65.817 37.409 65.5394C38.2727 65.2503 39.0471 64.8223 39.7321 64.2555C40.4171 63.7003 40.973 63.0005 41.3999 62.1562C41.8367 61.3118 42.0551 60.3228 42.0551 59.1893C42.0551 58.0673 41.8516 57.0783 41.4446 56.2224C41.0475 55.3665 40.5213 54.6435 39.8661 54.0536C39.201 53.4175 38.4663 52.897 37.6622 52.4921C36.8581 52.0757 36.0539 51.7229 35.2498 51.4338C34.7633 51.2603 34.2421 51.0578 33.6862 50.8265C33.1402 50.5952 32.6339 50.306 32.1673 49.959C31.6908 49.612 31.2986 49.1898 30.9909 48.6924C30.6831 48.1835 30.5243 47.5647 30.5144 46.836C30.5144 46.1651 30.6285 45.5752 30.8569 45.0662C31.0951 44.5573 31.4128 44.1293 31.8099 43.7823C32.1971 43.4353 32.6388 43.1751 33.1352 43.0016C33.6415 42.8281 34.1578 42.7413 34.6839 42.7413C35.3391 42.7413 35.9249 42.8628 36.4411 43.1057C36.9673 43.337 37.419 43.6667 37.7962 44.0946C38.1735 44.5226 38.4762 45.0373 38.7046 45.6388C38.9329 46.2287 39.0868 46.888 39.1662 47.6167H41.9956C41.9757 46.46 41.7623 45.4132 41.3552 44.4763C40.9482 43.5394 40.4071 42.7413 39.7321 42.082C39.057 41.4227 38.2827 40.9138 37.409 40.5552C36.5354 40.1851 35.627 40 34.6839 40C33.8302 40 32.9813 40.1562 32.1375 40.4685C31.2937 40.7692 30.5392 41.2145 29.874 41.8044C29.2089 42.3943 28.6678 43.1172 28.2509 43.9732C27.8438 44.8291 27.6403 45.8007 27.6403 46.888C27.6403 47.9753 27.8438 48.9238 28.2509 49.7334C28.6678 50.5315 29.2039 51.2256 29.8591 51.8155C30.5044 52.3938 31.2192 52.8912 32.0035 53.3076C32.7977 53.7124 33.577 54.0594 34.3414 54.3486C34.8676 54.5452 35.4136 54.765 35.9795 55.0079C36.5553 55.2508 37.0814 55.5515 37.5579 55.9101C38.0345 56.2802 38.4216 56.7313 38.7195 57.2634C39.0272 57.7955 39.1811 58.449 39.1811 59.224Z" fill="white"/>
<path d="M46.5821 46.836V49.6293H52.0621V62.8328H46.5821V65.6088H60.0736V62.8328H54.817V46.836H46.5821ZM51.7047 41.9085C51.7047 42.429 51.8387 42.8628 52.1068 43.2098C52.3847 43.5568 52.8017 43.7303 53.3576 43.7303C53.9036 43.7303 54.3156 43.5568 54.5936 43.2098C54.8716 42.8628 55.0106 42.429 55.0106 41.9085C55.0106 41.6193 54.9709 41.3533 54.8914 41.1104C54.812 40.8675 54.6929 40.6651 54.534 40.5032C54.405 40.3528 54.2412 40.2371 54.0426 40.1562C53.8441 40.0636 53.6157 40.0174 53.3576 40.0174C53.0995 40.0174 52.8662 40.0636 52.6577 40.1562C52.4592 40.2371 52.2954 40.3528 52.1663 40.5032C52.0075 40.6767 51.8884 40.8849 51.8089 41.1278C51.7394 41.3707 51.7047 41.6309 51.7047 41.9085Z" fill="white"/>
<path d="M63.9602 56.0662V56.4306C63.9602 57.7723 64.1092 59.0273 64.407 60.1956C64.7048 61.3523 65.1317 62.3586 65.6876 63.2145C66.2337 64.0705 66.9038 64.7413 67.698 65.2271C68.4922 65.7129 69.3807 65.9558 70.3635 65.9558C70.9492 65.9558 71.4953 65.8807 72.0016 65.7303C72.5079 65.5915 72.9695 65.3891 73.3865 65.123C73.6545 64.9495 73.9027 64.7471 74.131 64.5158C74.3693 64.2844 74.5927 64.03 74.8011 63.7524V65.3659C74.8011 66.1756 74.7019 66.8927 74.5033 67.5174C74.3048 68.142 74.0218 68.6625 73.6545 69.0789C73.2773 69.5068 72.8255 69.8307 72.2994 70.0505C71.7732 70.2702 71.1825 70.3801 70.5273 70.3801C70.16 70.3801 69.7927 70.3339 69.4254 70.2413C69.058 70.1604 68.6907 70.0216 68.3234 69.8249C67.9561 69.6283 67.5937 69.3623 67.2363 69.0268C66.8789 68.7029 66.5315 68.3039 66.1939 67.8297L64.7644 69.7555C65.1317 70.3686 65.5685 70.8833 66.0748 71.2997C66.591 71.7161 67.1271 72.0457 67.6831 72.2886C68.2291 72.5431 68.7701 72.7224 69.3062 72.8265C69.8423 72.9422 70.3188 73 70.7358 73C71.7484 73 72.6717 72.8265 73.5056 72.4795C74.3395 72.1325 75.0592 71.6236 75.6648 70.9527C76.2605 70.2818 76.7221 69.4664 77.0497 68.5063C77.3873 67.5463 77.556 66.4474 77.556 65.2098V46.836H75.0543L74.9203 48.8833C74.7316 48.6057 74.5281 48.3512 74.3097 48.1199C74.1012 47.8885 73.8779 47.6861 73.6396 47.5126C73.2028 47.1772 72.7114 46.9227 72.1654 46.7492C71.6293 46.5757 71.0386 46.489 70.3933 46.489C69.3906 46.489 68.4922 46.7261 67.698 47.2003C66.9038 47.6746 66.2287 48.3339 65.6728 49.1782C65.1168 50.0226 64.6899 51.0347 64.3921 52.2145C64.1042 53.3828 63.9602 54.6667 63.9602 56.0662ZM66.7151 56.4306V56.0662C66.7151 55.1525 66.7946 54.285 66.9534 53.4637C67.1222 52.6309 67.3853 51.8964 67.7426 51.2603C68.0901 50.6356 68.5368 50.1383 69.0829 49.7681C69.6388 49.398 70.304 49.2129 71.0783 49.2129C71.535 49.2129 71.9519 49.2823 72.3292 49.4211C72.7064 49.5484 73.0489 49.7277 73.3567 49.959C73.6644 50.2019 73.9374 50.4853 74.1757 50.8091C74.414 51.133 74.6224 51.4916 74.8011 51.8849V60.4905C74.6224 60.8954 74.414 61.2655 74.1757 61.6009C73.9374 61.9364 73.6694 62.2256 73.3716 62.4685C73.0638 62.7114 72.7163 62.9022 72.3292 63.041C71.9519 63.1682 71.525 63.2319 71.0485 63.2319C70.2841 63.2319 69.6289 63.0526 69.0829 62.694C68.5368 62.3239 68.0901 61.8265 67.7426 61.2019C67.3853 60.5773 67.1222 59.8544 66.9534 59.0331C66.7946 58.2119 66.7151 57.3444 66.7151 56.4306Z" fill="white"/>
<path d="M82.7829 65.6088H85.5378V52.1451C85.7264 51.7403 85.9448 51.3701 86.193 51.0347C86.4511 50.6993 86.7291 50.4043 87.0269 50.1498C87.3942 49.8607 87.7963 49.6351 88.2331 49.4732C88.6699 49.2997 89.1415 49.2129 89.6478 49.2129C90.2335 49.2129 90.7497 49.2939 91.1965 49.4558C91.6531 49.6178 92.0403 49.878 92.358 50.2366C92.6657 50.5952 92.899 51.0636 93.0579 51.642C93.2167 52.2203 93.2961 52.9259 93.2961 53.7587V65.6088H96.051V53.6893C96.051 52.4401 95.917 51.3644 95.649 50.4621C95.3909 49.5484 95.0186 48.7965 94.5321 48.2066C94.0457 47.6167 93.455 47.183 92.7601 46.9054C92.0751 46.6278 91.3106 46.489 90.4668 46.489C89.8414 46.5005 89.2457 46.6104 88.6798 46.8186C88.1239 47.0152 87.6077 47.2986 87.1311 47.6688C86.8135 47.9117 86.5107 48.2008 86.2228 48.5363C85.9448 48.8601 85.6867 49.2187 85.4484 49.612L85.2548 46.836H82.7829V65.6088Z" fill="white"/>
<path d="M119.416 40.347V43.1404H124.493V62.8328H119.416V65.6088H132.52V62.8328H127.323V43.1404H132.52V40.347H119.416Z" fill="white"/>
<path d="M137.732 65.6088H140.487V52.1451C140.675 51.7403 140.894 51.3701 141.142 51.0347C141.4 50.6993 141.678 50.4043 141.976 50.1498C142.343 49.8607 142.745 49.6351 143.182 49.4732C143.619 49.2997 144.09 49.2129 144.597 49.2129C145.182 49.2129 145.699 49.2939 146.145 49.4558C146.602 49.6178 146.989 49.878 147.307 50.2366C147.615 50.5952 147.848 51.0636 148.007 51.642C148.166 52.2203 148.245 52.9259 148.245 53.7587V65.6088H151V53.6893C151 52.4401 150.866 51.3644 150.598 50.4621C150.34 49.5484 149.968 48.7965 149.481 48.2066C148.995 47.6167 148.404 47.183 147.709 46.9054C147.024 46.6278 146.26 46.489 145.416 46.489C144.79 46.5005 144.195 46.6104 143.629 46.8186C143.073 47.0152 142.557 47.2986 142.08 47.6688C141.762 47.9117 141.46 48.2008 141.172 48.5363C140.894 48.8601 140.636 49.2187 140.397 49.612L140.204 46.836H137.732V65.6088Z" fill="white"/>
</svg>
