<svg width="256" height="128" viewBox="0 0 256 128" fill="none" xmlns="http://www.w3.org/2000/svg">
<path d="M64.5 38.5C64.5 38.5 58.5 44.5 55.5 38.5C52.5 32.5 63 32.5 63 32.5H72C72 32.5 81.0705 22 78 19C77.187 18.205 72.0555 25.6105 69 25C61.5 23.5 51 31 51 31L45 29.5C45 29.5 45 40 37.5 40C30 40 36 34 36 34L31.5 28C31.5 28 28.5 38.5 22.5 37C22.5 37 25.5 43 22.5 46C18.675 49.825 12 49 12 49C12 49 21 59.5 13.5 59.5C13.5 59.5 25.5 74.5 10.5 77.5C10.5 77.5 27 91 16.5 94C16.5 94 31.5 94 33 106C33 106 39 101.5 45 106C45 106 49.5 94 61.5 109C67.5 104.5 61.5 97 73.5 95.5C73.5 95.5 75 83.5 90 76C90 76 96 70 78 73C78 73 75 65.5 81 61C81 61 72 49 82.5 41.5C82.5 41.5 66 47.5 64.5 38.5Z" fill="#1D3557"/>
<circle cx="48" cy="71.5" r="22.5" fill="#457B9D"/>
<path d="M48 80.9875C55.0125 80.9875 59.55 77.6875 59.55 77.6875C59.55 77.6875 58.3125 80.575 54.6 81.8125L55.8375 83.875C62.2374 83.6688 64.9125 79.3965 64.9125 79.3965C64.9125 69.909 60.7421 62.2192 60.7421 62.2192C56.5718 59.0371 52.6043 59.1254 52.6043 59.1254L52.125 59.5375C57.0482 61.0695 59.1375 63.6625 59.1375 63.6625C56.1258 61.9832 52.5375 60.775 48 60.775C43.4625 60.775 39.8742 61.9832 36.8625 63.6625C36.8625 63.6625 38.9518 61.0695 43.875 59.5375L43.3953 59.1254C43.3953 59.1254 39.4278 59.0371 35.2575 62.2192C35.2575 62.2192 31.0871 69.9094 31.0871 79.3965C31.0871 79.3965 33.7622 83.6688 40.1621 83.875L41.3996 81.8125C37.6871 80.575 36.4496 77.6875 36.4496 77.6875C36.4496 77.6875 40.9875 80.9875 48 80.9875Z" fill="#F1FAEE" stroke="black" stroke-miterlimit="10" stroke-linejoin="round"/>
<path d="M53.1562 76.8625C54.8649 76.8625 56.25 75.385 56.25 73.5625C56.25 71.74 54.8649 70.2625 53.1562 70.2625C51.4476 70.2625 50.0625 71.74 50.0625 73.5625C50.0625 75.385 51.4476 76.8625 53.1562 76.8625Z" fill="#457B9D"/>
<path d="M42.8437 76.8625C44.5524 76.8625 45.9375 75.385 45.9375 73.5625C45.9375 71.74 44.5524 70.2625 42.8437 70.2625C41.1351 70.2625 39.75 71.74 39.75 73.5625C39.75 75.385 41.1351 76.8625 42.8437 76.8625Z" fill="#457B9D"/>
<path d="M58.1063 65.218C57.9697 65.143 57.8311 65.079 57.6938 65.0072" stroke="black" stroke-miterlimit="10" stroke-linecap="round"/>
<path d="M56.8687 64.5886C56.1898 64.2689 55.5021 63.9958 54.8062 63.7549" stroke="black" stroke-miterlimit="10" stroke-linecap="round"/>
<path d="M53.9813 63.4913C52.0722 62.9221 50.0918 62.6312 48 62.6312C44.3634 62.6312 41.0568 63.4802 37.8938 65.218" stroke="black" stroke-miterlimit="10" stroke-linecap="round"/>
<path d="M122.615 74.6981C122.615 75.3661 122.544 75.9827 122.402 76.5478C122.26 77.0959 122.056 77.5669 121.79 77.9608C121.524 78.3547 121.196 78.663 120.806 78.8857C120.424 79.1083 119.985 79.2197 119.489 79.2197C118.93 79.2197 118.416 79.0998 117.946 78.86C117.485 78.6202 117.09 78.2434 116.762 77.7296C116.425 77.2158 116.163 76.5564 115.977 75.7514C115.791 74.9465 115.689 73.9788 115.671 72.8484H112C112 74.7838 112.191 76.4708 112.572 77.9094C112.962 79.3481 113.49 80.5984 114.155 81.6602C114.855 82.7392 115.676 83.5613 116.616 84.1265C117.564 84.6746 118.522 84.9486 119.489 84.9486C120.473 84.9486 121.382 84.726 122.216 84.2807C123.049 83.8182 123.767 83.1417 124.37 82.2511C124.973 81.3776 125.443 80.3072 125.78 79.0398C126.126 77.7553 126.299 76.2909 126.299 74.6468C126.299 72.7457 126.073 71.0672 125.621 69.6114C125.168 68.1556 124.561 66.8797 123.798 65.7836C123.293 65.1156 122.739 64.5247 122.136 64.0109C121.533 63.4971 120.899 63.0604 120.234 62.7007C119.613 62.3753 119.054 62.0242 118.558 61.6474C118.07 61.2706 117.653 60.851 117.307 60.3886C116.961 59.9433 116.695 59.438 116.509 58.8728C116.332 58.3076 116.243 57.6739 116.243 56.9717C116.243 56.3038 116.31 55.6872 116.443 55.122C116.585 54.5397 116.789 54.0345 117.055 53.6063C117.321 53.1952 117.644 52.8784 118.026 52.6557C118.416 52.416 118.859 52.2961 119.356 52.2961C119.897 52.2961 120.367 52.4417 120.766 52.7328C121.174 53.0069 121.515 53.3922 121.79 53.8889C122.056 54.4027 122.255 55.0107 122.388 55.7129C122.53 56.4151 122.61 57.1858 122.628 58.025H126.272C126.272 56.3466 126.104 54.8052 125.767 53.4008C125.43 51.9964 124.96 50.7803 124.357 49.7527C123.754 48.7422 123.031 47.9544 122.189 47.3892C121.355 46.824 120.433 46.5414 119.422 46.5414C118.447 46.5414 117.542 46.7898 116.709 47.2864C115.875 47.766 115.152 48.4596 114.541 49.3674C113.929 50.2751 113.45 51.3712 113.104 52.6557C112.758 53.9403 112.585 55.3704 112.585 56.946C112.585 58.3162 112.714 59.5836 112.971 60.7482C113.237 61.9129 113.627 62.9747 114.142 63.9338C114.656 64.893 115.316 65.775 116.123 66.58C116.939 67.3849 117.884 68.07 118.957 68.6352C119.648 68.9949 120.225 69.3888 120.686 69.817C121.156 70.228 121.537 70.6819 121.83 71.1785C122.114 71.6924 122.313 72.2404 122.428 72.8227C122.552 73.4051 122.615 74.0302 122.615 74.6981Z" fill="#1D3557"/>
<path d="M128.547 70.3051V70.8446C128.547 72.8827 128.698 74.7666 128.999 76.4965C129.301 78.2092 129.744 79.6992 130.329 80.9666C130.906 82.234 131.615 83.2274 132.458 83.9467C133.309 84.6489 134.276 85 135.357 85C136.43 85 137.388 84.6489 138.23 83.9467C139.073 83.2274 139.782 82.234 140.359 80.9666C140.935 79.6992 141.374 78.2092 141.676 76.4965C141.977 74.7666 142.128 72.8827 142.128 70.8446V70.3051C142.128 68.2841 141.977 66.4173 141.676 64.7046C141.374 62.9747 140.935 61.4761 140.359 60.2087C139.773 58.9413 139.06 57.948 138.217 57.2286C137.375 56.5093 136.413 56.1496 135.331 56.1496C134.249 56.1496 133.287 56.5093 132.444 57.2286C131.611 57.948 130.906 58.9413 130.329 60.2087C129.744 61.4761 129.301 62.9747 128.999 64.7046C128.698 66.4173 128.547 68.2841 128.547 70.3051ZM132.245 70.8446V70.3051C132.245 69.1747 132.302 68.1043 132.418 67.0938C132.533 66.0833 132.715 65.1927 132.963 64.422C133.211 63.6513 133.531 63.0432 133.921 62.5979C134.311 62.1526 134.781 61.93 135.331 61.93C135.889 61.93 136.364 62.1526 136.754 62.5979C137.144 63.0432 137.463 63.6513 137.712 64.422C137.951 65.1927 138.129 66.0833 138.244 67.0938C138.359 68.1043 138.417 69.1747 138.417 70.3051V70.8446C138.417 72.0092 138.359 73.1053 138.244 74.1329C138.129 75.1434 137.951 76.0255 137.712 76.7791C137.463 77.5498 137.144 78.1578 136.754 78.6031C136.364 79.0484 135.898 79.271 135.357 79.271C134.799 79.271 134.32 79.0484 133.921 78.6031C133.531 78.1578 133.211 77.5498 132.963 76.7791C132.715 76.0255 132.533 75.1434 132.418 74.1329C132.302 73.1053 132.245 72.0092 132.245 70.8446Z" fill="#1D3557"/>
<path d="M146.185 45V50.8317H150.494V78.6545H146.185V84.4605H158.356V78.6545H154.232V45H146.185Z" fill="#1D3557"/>
<path d="M170.766 84.4605H174.517V84.0238C174.331 83.3216 174.189 82.4823 174.091 81.5061C173.994 80.5299 173.945 79.2967 173.945 77.8067V65.8863C173.945 64.2764 173.79 62.8634 173.479 61.6474C173.169 60.4143 172.739 59.3952 172.189 58.5902C171.639 57.7853 170.988 57.1773 170.234 56.7662C169.489 56.3552 168.682 56.1496 167.813 56.1496C166.846 56.1496 165.986 56.3894 165.232 56.869C164.488 57.3314 163.858 57.9651 163.344 58.7701C162.82 59.575 162.421 60.5085 162.147 61.5703C161.88 62.6322 161.747 63.754 161.747 64.9358H165.445C165.445 64.4391 165.481 63.9852 165.552 63.5742C165.632 63.1631 165.751 62.812 165.911 62.5209C166.088 62.1955 166.319 61.9471 166.603 61.7759C166.886 61.5875 167.223 61.4933 167.613 61.4933C168.057 61.4933 168.443 61.6046 168.771 61.8272C169.108 62.0328 169.387 62.3325 169.609 62.7264C169.821 63.1032 169.981 63.5571 170.088 64.088C170.194 64.6018 170.247 65.1841 170.247 65.8349V67.4791H168.185C167.121 67.4791 166.177 67.6675 165.352 68.0443C164.536 68.404 163.849 68.9349 163.29 69.6371C162.67 70.4078 162.204 71.3926 161.894 72.5915C161.583 73.7733 161.428 75.1349 161.428 76.6763C161.428 77.8752 161.552 78.9884 161.801 80.0161C162.049 81.0265 162.395 81.9 162.838 82.6365C163.282 83.3729 163.809 83.9467 164.421 84.3577C165.042 84.7688 165.72 84.9743 166.456 84.9743C166.908 84.9743 167.33 84.8887 167.72 84.7174C168.11 84.5633 168.469 84.3406 168.797 84.0495C169.116 83.7754 169.409 83.45 169.675 83.0732C169.941 82.6964 170.176 82.2939 170.38 81.8658C170.424 82.3624 170.478 82.8334 170.54 83.2787C170.602 83.724 170.677 84.118 170.766 84.4605ZM167.241 79.4509C166.895 79.4509 166.589 79.3738 166.323 79.2197C166.066 79.0484 165.849 78.8257 165.671 78.5517C165.494 78.2605 165.357 77.9094 165.259 77.4984C165.17 77.0702 165.126 76.6078 165.126 76.1111C165.126 75.4774 165.188 74.8951 165.312 74.3642C165.436 73.8161 165.627 73.3451 165.884 72.9512C166.141 72.5744 166.474 72.2832 166.882 72.0777C167.29 71.8551 167.782 71.7437 168.358 71.7437H170.247V76.5222C170.141 76.8818 169.994 77.2415 169.808 77.6012C169.622 77.9437 169.4 78.252 169.143 78.526C168.886 78.8 168.598 79.0227 168.279 79.194C167.959 79.3652 167.613 79.4509 167.241 79.4509Z" fill="#1D3557"/>
<path d="M188.47 56.1496C187.504 56.1496 186.612 56.6035 185.797 57.5112C184.981 58.4018 184.28 59.635 183.695 61.2107L183.668 60.5941L183.522 56.6635H180.077V84.4605H183.775V67.7617C183.943 66.9739 184.156 66.2888 184.413 65.7065C184.67 65.1242 184.981 64.6446 185.344 64.2678C185.646 63.9424 185.987 63.7026 186.368 63.5485C186.759 63.3772 187.193 63.2916 187.672 63.2916C188.133 63.2916 188.616 63.3515 189.122 63.4714C189.636 63.5742 190.137 63.7369 190.625 63.9595L191.17 56.8433C190.878 56.672 190.492 56.5179 190.013 56.3809C189.543 56.2267 189.029 56.1496 188.47 56.1496Z" fill="#1D3557"/>
<path d="M194.336 84.4605H201.399C202.463 84.4605 203.421 84.2293 204.272 83.7669C205.124 83.3044 205.846 82.6108 206.44 81.6859C207.035 80.7611 207.491 79.6136 207.81 78.2434C208.13 76.8733 208.289 75.289 208.289 73.4907C208.289 72.5487 208.223 71.641 208.09 70.7675C207.966 69.8769 207.771 69.0548 207.505 68.3012C207.247 67.599 206.928 66.9824 206.547 66.4515C206.174 65.9206 205.669 65.4838 205.03 65.1413V65.1156C205.359 64.8758 205.656 64.5847 205.922 64.2421C206.197 63.8996 206.44 63.5228 206.653 63.1118C207.043 62.3582 207.336 61.4847 207.531 60.4913C207.735 59.4808 207.841 58.4104 207.85 57.28C207.85 55.5331 207.682 54.0173 207.345 52.7328C207.017 51.4483 206.547 50.3864 205.935 49.5472C205.323 48.708 204.583 48.0829 203.714 47.6718C202.853 47.2608 201.896 47.0552 200.84 47.0552H194.336V84.4605ZM198.087 67.9672H201.572C202.095 67.9844 202.548 68.1214 202.929 68.3783C203.31 68.6352 203.62 69.0034 203.86 69.483C204.099 69.9454 204.272 70.5106 204.379 71.1785C204.494 71.8465 204.552 72.6001 204.552 73.4393C204.552 74.2443 204.476 74.9722 204.325 75.623C204.184 76.2738 203.971 76.8304 203.687 77.2929C203.43 77.7039 203.106 78.0293 202.716 78.2691C202.335 78.5089 201.9 78.6288 201.412 78.6288H198.087V67.9672ZM198.087 62.7521V52.9383H200.854C201.457 52.9555 201.98 53.0839 202.423 53.3237C202.876 53.5635 203.235 53.9488 203.501 54.4798C203.705 54.8566 203.855 55.3276 203.953 55.8927C204.059 56.4579 204.113 57.1173 204.113 57.8709C204.113 58.5902 204.051 59.2325 203.926 59.7977C203.811 60.3629 203.643 60.8424 203.421 61.2364C203.155 61.733 202.805 62.1098 202.37 62.3667C201.936 62.6065 201.435 62.735 200.867 62.7521H198.087Z" fill="#1D3557"/>
<path d="M210.351 70.3051V70.8446C210.351 72.8827 210.502 74.7666 210.803 76.4965C211.105 78.2092 211.548 79.6992 212.133 80.9666C212.71 82.234 213.419 83.2274 214.262 83.9467C215.113 84.6489 216.08 85 217.161 85C218.234 85 219.192 84.6489 220.035 83.9467C220.877 83.2274 221.586 82.234 222.163 80.9666C222.739 79.6992 223.178 78.2092 223.48 76.4965C223.781 74.7666 223.932 72.8827 223.932 70.8446V70.3051C223.932 68.2841 223.781 66.4173 223.48 64.7046C223.178 62.9747 222.739 61.4761 222.163 60.2087C221.577 58.9413 220.864 57.948 220.021 57.2286C219.179 56.5093 218.217 56.1496 217.135 56.1496C216.053 56.1496 215.091 56.5093 214.248 57.2286C213.415 57.948 212.71 58.9413 212.133 60.2087C211.548 61.4761 211.105 62.9747 210.803 64.7046C210.502 66.4173 210.351 68.2841 210.351 70.3051ZM214.049 70.8446V70.3051C214.049 69.1747 214.106 68.1043 214.222 67.0938C214.337 66.0833 214.519 65.1927 214.767 64.422C215.015 63.6513 215.335 63.0432 215.725 62.5979C216.115 62.1526 216.585 61.93 217.135 61.93C217.693 61.93 218.168 62.1526 218.558 62.5979C218.948 63.0432 219.267 63.6513 219.516 64.422C219.755 65.1927 219.933 66.0833 220.048 67.0938C220.163 68.1043 220.221 69.1747 220.221 70.3051V70.8446C220.221 72.0092 220.163 73.1053 220.048 74.1329C219.933 75.1434 219.755 76.0255 219.516 76.7791C219.267 77.5498 218.948 78.1578 218.558 78.6031C218.168 79.0484 217.702 79.271 217.161 79.271C216.603 79.271 216.124 79.0484 215.725 78.6031C215.335 78.1578 215.015 77.5498 214.767 76.7791C214.519 76.0255 214.337 75.1434 214.222 74.1329C214.106 73.1053 214.049 72.0092 214.049 70.8446Z" fill="#1D3557"/>
<path d="M234.001 49.8555H230.303V56.6635H227.018V61.93H230.303V74.5697C230.303 76.4023 230.427 77.9779 230.676 79.2967C230.924 80.5984 231.279 81.6688 231.74 82.508C232.192 83.3644 232.737 83.9981 233.376 84.4091C234.023 84.803 234.741 85 235.531 85C235.939 85 236.351 84.9572 236.768 84.8715C237.193 84.803 237.601 84.7003 237.991 84.5633C238.382 84.4262 238.75 84.255 239.096 84.0495C239.441 83.8268 239.743 83.5699 240 83.2787L239.641 78.3719C239.472 78.4575 239.268 78.5431 239.029 78.6288C238.798 78.7144 238.55 78.7915 238.284 78.86C238.009 78.9456 237.721 79.0141 237.42 79.0655C237.127 79.1169 236.839 79.1426 236.555 79.1426C236.165 79.1426 235.81 79.0569 235.491 78.8857C235.18 78.7144 234.914 78.4232 234.693 78.0122C234.471 77.6183 234.298 77.0873 234.174 76.4194C234.059 75.7343 234.001 74.8865 234.001 73.876V61.93H239.375V56.6635H234.001V49.8555Z" fill="#1D3557"/>
</svg>
