<?xml version="1.0" standalone="no"?>
<!DOCTYPE svg PUBLIC "-//W3C//DTD SVG 20010904//EN"
 "http://www.w3.org/TR/2001/REC-SVG-20010904/DTD/svg10.dtd">
<svg version="1.0" xmlns="http://www.w3.org/2000/svg"
 width="700.000000pt" height="700.000000pt" viewBox="0 0 700.000000 700.000000"
 preserveAspectRatio="xMidYMid meet">
<metadata>
Created by potrace 1.11, written by Peter Selinger 2001-2013
</metadata>
<g transform="translate(0.000000,700.000000) scale(0.100000,-0.100000)"
fill="#000000" stroke="none">
<path d="M5643 6771 c-26 -17 -88 -73 -259 -238 -54 -52 -170 -138 -222 -163
-50 -25 -51 -26 -262 -17 -72 2 -145 -1 -195 -10 -268 -45 -592 -183 -907
-385 l-79 -51 -214 54 c-118 29 -216 51 -219 48 -2 -2 -6 -37 -10 -77 -3 -40
-7 -76 -10 -80 -2 -4 -7 -28 -10 -54 -21 -155 -109 -336 -210 -430 -115 -107
-310 -147 -474 -96 -85 26 -117 67 -109 139 7 59 51 144 112 219 44 54 54 75
37 82 -5 2 -36 39 -68 83 -33 44 -101 136 -153 204 l-93 123 -38 -100 c-101
-266 -238 -452 -389 -529 -48 -24 -68 -28 -142 -28 l-86 0 24 -59 c66 -161 85
-346 48 -465 -43 -142 -212 -264 -445 -320 -100 -24 -149 -29 -288 -30 l-104
-1 49 -62 c121 -154 227 -335 257 -437 45 -153 -4 -238 -147 -259 l-48 -7 49
-71 c250 -363 336 -702 232 -918 -66 -140 -198 -236 -406 -295 l-95 -27 73
-64 c100 -88 271 -261 341 -345 83 -99 80 -96 135 -177 197 -291 184 -484 -41
-589 l-62 -28 40 -1 c22 -1 49 -3 60 -4 11 -2 47 -6 80 -10 157 -20 390 -92
513 -158 169 -92 303 -215 382 -353 44 -79 86 -181 95 -238 3 -17 10 -46 14
-64 5 -17 6 -34 3 -37 -13 -14 12 -5 36 13 46 32 262 120 262 106 0 -2 15 1
33 6 43 13 189 13 255 0 70 -14 175 -57 239 -97 l51 -33 39 67 c55 96 146 185
229 224 60 28 78 32 153 31 99 0 121 -4 205 -40 168 -70 341 -219 558 -477
l25 -29 59 59 c89 90 151 220 178 379 45 261 147 402 344 479 62 25 173 53
246 63 50 6 46 4 52 45 3 18 23 85 44 148 160 484 548 914 1079 1196 90 48
141 110 141 174 0 72 -52 110 -185 132 -133 23 -331 14 -619 -28 -149 -21
-140 -24 -159 49 -25 96 -31 143 -30 257 0 118 18 201 63 298 35 75 107 170
161 214 21 17 39 35 39 39 0 5 -20 39 -44 76 -101 158 -179 367 -203 545 -11
84 -5 232 12 306 9 37 39 113 67 170 42 87 64 117 137 191 47 49 100 98 116
109 l30 21 -50 -15 c-90 -28 -148 -44 -240 -65 -92 -21 -105 -24 -165 -33 -19
-3 -46 -8 -60 -10 -83 -16 -289 -22 -370 -11 -200 27 -348 124 -400 263 -12
31 -22 65 -23 74 -1 18 -7 15 -52 -25 -69 -62 -205 -133 -276 -144 -118 -18
-189 6 -263 88 -79 87 -116 191 -102 283 16 107 161 200 364 232 19 3 44 8 56
11 11 3 200 6 419 8 l397 3 20 23 c49 58 222 291 265 358 61 96 128 221 155
291 54 137 55 249 3 301 -18 18 -19 18 -50 0z"/>
</g>
</svg>
